<?xml version="1.0" encoding="utf-8"?>
<!-- Generator: Adobe Illustrator 23.1.0, SVG Export Plug-In . SVG Version: 6.00 Build 0)  -->
<svg version="1.1" id="Layer_1" xmlns="http://www.w3.org/2000/svg" xmlns:xlink="http://www.w3.org/1999/xlink" x="0px" y="0px"
	 viewBox="0 0 149.3 142" style="enable-background:new 0 0 149.3 142;" xml:space="preserve">
<style type="text/css">
	.st0{fill:#FFFFFF;}
</style>
<g>
	<polygon class="st0" points="74.7,117.2 29.2,141.1 37.9,90.5 1.1,54.6 51.9,47.2 74.7,1.1 97.4,47.2 148.2,54.6 111.5,90.5 
		120.1,141.1 	"/>
	<path d="M74.7,2.3l22.2,44.9l0.2,0.5l0.5,0.1l49.6,7.2l-35.9,35l-0.4,0.4l0.1,0.5l8.5,49.4l-44.3-23.3l-0.5-0.2l-0.5,0.2
		l-44.3,23.3l8.5-49.4l0.1-0.5L38,89.9l-35.9-35l49.6-7.2l0.5-0.1l0.2-0.5L74.7,2.3 M74.7,0L51.6,46.7L0,54.2l37.3,36.4L28.5,142
		l46.1-24.3l46.1,24.3L112,90.6l37.3-36.4l-51.6-7.5L74.7,0L74.7,0z"/>
</g>
</svg>
